<svg width="44" height="44" viewBox="0 0 44 44" fill="none" xmlns="http://www.w3.org/2000/svg">
<rect width="44" height="44" rx="12" fill="white" fill-opacity="0.15"/>
<path d="M11.8923 16.9873L21.9943 22.6101L32.0275 17.0203" stroke="white" stroke-width="1.5" stroke-linecap="round" stroke-linejoin="round"/>
<path d="M21.9944 32.5788V22.5986" stroke="white" stroke-width="1.5" stroke-linecap="round" stroke-linejoin="round"/>
<path d="M19.6261 11.5295L13.5169 14.7866C12.1326 15.5238 11 17.3724 11 18.8908V25.1078C11 26.6263 12.1326 28.4748 13.5169 29.2121L19.6261 32.4801C20.9303 33.1733 23.0697 33.1733 24.3739 32.4801L30.4831 29.2121C31.8674 28.4748 33 26.6263 33 25.1078V18.8908C33 17.3724 31.8674 15.5238 30.4831 14.7866L24.3739 11.5185C23.0582 10.8253 20.9303 10.8253 19.6261 11.5295Z" stroke="white" stroke-width="1.5" stroke-linecap="round" stroke-linejoin="round"/>
</svg>
