<svg width="44" height="44" viewBox="0 0 44 44" fill="none" xmlns="http://www.w3.org/2000/svg">
<rect width="44" height="44" rx="12" fill="white" fill-opacity="0.15"/>
<path d="M18.0103 21.989L20.6603 24.6503L25.9713 19.3276" stroke="white" stroke-width="1.5" stroke-linecap="round" stroke-linejoin="round"/>
<path d="M20.6161 11.4866C21.3749 10.8378 22.6174 10.8378 23.3871 11.4866L25.1244 12.9823C25.4543 13.2682 26.0701 13.4991 26.5099 13.4991H28.3792C29.5448 13.4991 30.5014 14.4559 30.5014 15.6216V17.4911C30.5014 17.92 30.7323 18.5469 31.0182 18.8768L32.5137 20.6143C33.1624 21.3732 33.1624 22.6158 32.5137 23.3857L31.0182 25.1232C30.7323 25.4531 30.5014 26.069 30.5014 26.5089V28.3784C30.5014 29.5441 29.5448 30.5009 28.3792 30.5009H26.5099C26.0811 30.5009 25.4543 30.7318 25.1244 31.0177L23.3871 32.5134C22.6284 33.1622 21.3858 33.1622 20.6161 32.5134L18.8788 31.0177C18.5489 30.7318 17.9331 30.5009 17.4933 30.5009H15.591C14.4255 30.5009 13.4688 29.5441 13.4688 28.3784V26.4979C13.4688 26.069 13.2379 25.4531 12.963 25.1232L11.4786 23.3747C10.8408 22.6158 10.8408 21.3842 11.4786 20.6253L12.963 18.8768C13.2379 18.5469 13.4688 17.931 13.4688 17.5021V15.6106C13.4688 14.4449 14.4255 13.4881 15.591 13.4881H17.4933C17.9221 13.4881 18.5489 13.2572 18.8788 12.9713L20.6161 11.4866Z" stroke="white" stroke-width="1.5" stroke-linecap="round" stroke-linejoin="round"/>
</svg>
