<svg width="261" height="261" viewBox="0 0 261 261" fill="none" xmlns="http://www.w3.org/2000/svg">
<g clip-path="url(#clip0_10768_2025)">
<path d="M163.393 4.21216L150.452 52.5084" stroke="#a16207" stroke-width="2"/>
</g>
<g clip-path="url(#clip1_10768_2025)">
<path d="M179.596 9.58069L160.462 55.7747" stroke="#a16207" stroke-width="2"/>
</g>
<g clip-path="url(#clip2_10768_2025)">
<path d="M194.958 17.0248L169.958 60.326" stroke="#a16207" stroke-width="2"/>
</g>
<g clip-path="url(#clip3_10768_2025)">
<path d="M209.219 26.412L178.781 66.0796" stroke="#a16207" stroke-width="2"/>
</g>
<g clip-path="url(#clip4_10768_2025)">
<path d="M222.131 37.5754L186.776 72.9308" stroke="#a16207" stroke-width="2"/>
</g>
<g clip-path="url(#clip5_10768_2025)">
<path d="M233.477 50.3289L193.809 80.7669" stroke="#a16207" stroke-width="2"/>
</g>
<g clip-path="url(#clip6_10768_2025)">
<path d="M243.06 64.4574L199.758 89.4574" stroke="#a16207" stroke-width="2"/>
</g>
<g clip-path="url(#clip7_10768_2025)">
<path d="M250.717 79.7145L204.523 98.8486" stroke="#a16207" stroke-width="2"/>
</g>
<g clip-path="url(#clip8_10768_2025)">
<path d="M256.317 95.8402L208.02 108.781" stroke="#a16207" stroke-width="2"/>
</g>
<g clip-path="url(#clip9_10768_2025)">
<path d="M259.765 112.556L210.192 119.082" stroke="#a16207" stroke-width="2"/>
</g>
<g clip-path="url(#clip10_10768_2025)">
<path d="M261.001 129.584L211.001 129.584" stroke="#a16207" stroke-width="2"/>
</g>
<g clip-path="url(#clip11_10768_2025)">
<path d="M260.004 146.625L210.432 140.099" stroke="#a16207" stroke-width="2"/>
</g>
<g clip-path="url(#clip12_10768_2025)">
<path d="M256.79 163.39L208.494 150.449" stroke="#a16207" stroke-width="2"/>
</g>
<g clip-path="url(#clip13_10768_2025)">
<path d="M251.418 179.594L205.224 160.459" stroke="#a16207" stroke-width="2"/>
</g>
<g clip-path="url(#clip14_10768_2025)">
<path d="M243.973 194.955L200.671 169.955" stroke="#a16207" stroke-width="2"/>
</g>
<g clip-path="url(#clip15_10768_2025)">
<path d="M234.59 209.215L194.923 178.777" stroke="#a16207" stroke-width="2"/>
</g>
<g clip-path="url(#clip16_10768_2025)">
<path d="M223.425 222.132L188.07 186.777" stroke="#a16207" stroke-width="2"/>
</g>
<g clip-path="url(#clip17_10768_2025)">
<path d="M210.669 233.474L180.231 193.806" stroke="#a16207" stroke-width="2"/>
</g>
<g clip-path="url(#clip18_10768_2025)">
<path d="M196.543 243.058L171.543 199.757" stroke="#a16207" stroke-width="2"/>
</g>
<g clip-path="url(#clip19_10768_2025)">
<path d="M181.286 250.714L162.152 204.52" stroke="#a16207" stroke-width="2"/>
</g>
<g clip-path="url(#clip20_10768_2025)">
<path d="M165.16 256.317L152.219 208.021" stroke="#a16207" stroke-width="2"/>
</g>
<g clip-path="url(#clip21_10768_2025)">
<path d="M148.441 259.767L141.914 210.195" stroke="#a16207" stroke-width="2"/>
</g>
<g clip-path="url(#clip22_10768_2025)">
<path d="M131.415 261.002L131.415 211.002" stroke="#a16207" stroke-width="2"/>
</g>
<g clip-path="url(#clip23_10768_2025)">
<path d="M114.373 260.004L120.9 210.431" stroke="#a16207" stroke-width="2"/>
</g>
<g clip-path="url(#clip24_10768_2025)">
<path d="M97.6078 256.789L110.549 208.492" stroke="#a16207" stroke-width="2"/>
</g>
<g clip-path="url(#clip25_10768_2025)">
<path d="M81.4057 251.412L100.54 205.218" stroke="#a16207" stroke-width="2"/>
</g>
<g clip-path="url(#clip26_10768_2025)">
<path d="M66.043 243.968L91.043 200.667" stroke="#a16207" stroke-width="2"/>
</g>
<g clip-path="url(#clip27_10768_2025)">
<path d="M51.783 234.586L82.2211 194.919" stroke="#a16207" stroke-width="2"/>
</g>
<g clip-path="url(#clip28_10768_2025)">
<path d="M38.871 223.426L74.2263 188.071" stroke="#a16207" stroke-width="2"/>
</g>
<g clip-path="url(#clip29_10768_2025)">
<path d="M27.5251 210.672L67.1928 180.234" stroke="#a16207" stroke-width="2"/>
</g>
<g clip-path="url(#clip30_10768_2025)">
<path d="M17.9413 196.541L61.2426 171.541" stroke="#a16207" stroke-width="2"/>
</g>
<g clip-path="url(#clip31_10768_2025)">
<path d="M10.2839 181.287L56.4779 162.153" stroke="#a16207" stroke-width="2"/>
</g>
<g clip-path="url(#clip32_10768_2025)">
<path d="M4.68414 165.162L52.9804 152.221" stroke="#a16207" stroke-width="2"/>
</g>
<g clip-path="url(#clip33_10768_2025)">
<path d="M1.23627 148.439L50.8085 141.913" stroke="#a16207" stroke-width="2"/>
</g>
<g clip-path="url(#clip34_10768_2025)">
<path d="M0.0010376 131.417L50.001 131.417" stroke="#a16207" stroke-width="2"/>
</g>
<g clip-path="url(#clip35_10768_2025)">
<path d="M0.997864 114.371L50.5701 120.897" stroke="#a16207" stroke-width="2"/>
</g>
<g clip-path="url(#clip36_10768_2025)">
<path d="M4.21051 97.6067L52.5068 110.548" stroke="#a16207" stroke-width="2"/>
</g>
<g clip-path="url(#clip37_10768_2025)">
<path d="M9.58331 81.4062L55.7773 100.54" stroke="#a16207" stroke-width="2"/>
</g>
<g clip-path="url(#clip38_10768_2025)">
<path d="M17.0258 66.0436L60.3271 91.0436" stroke="#a16207" stroke-width="2"/>
</g>
<g clip-path="url(#clip39_10768_2025)">
<path d="M26.4104 51.781L66.0781 82.2191" stroke="#a16207" stroke-width="2"/>
</g>
<g clip-path="url(#clip40_10768_2025)">
<path d="M37.577 38.8705L72.9324 74.2258" stroke="#a16207" stroke-width="2"/>
</g>
<g clip-path="url(#clip41_10768_2025)">
<path d="M50.3305 27.5282L80.7686 67.1959" stroke="#a16207" stroke-width="2"/>
</g>
<g clip-path="url(#clip42_10768_2025)">
<path d="M64.458 17.9435L89.458 61.2448" stroke="#a16207" stroke-width="2"/>
</g>
<g clip-path="url(#clip43_10768_2025)">
<path d="M79.7148 10.2849L98.849 56.4789" stroke="#a16207" stroke-width="2"/>
</g>
<g clip-path="url(#clip44_10768_2025)">
<path d="M95.8408 4.68457L108.782 52.9809" stroke="#a16207" stroke-width="2"/>
</g>
<g clip-path="url(#clip45_10768_2025)">
<path d="M112.559 1.23364L119.085 50.8059" stroke="#a16207" stroke-width="2"/>
</g>
<path d="M129.586 0V50" stroke="#a16207" stroke-width="2"/>
<g clip-path="url(#clip46_10768_2025)">
<path d="M146.627 0.997314L140.101 50.5695" stroke="#a16207" stroke-width="2"/>
</g>
<defs>
<clipPath id="clip0_10768_2025">
<rect width="7.83002" height="261.001" fill="white" transform="translate(160.495 3.43567) rotate(15)"/>
</clipPath>
<clipPath id="clip1_10768_2025">
<rect width="7.83002" height="261.001" fill="white" transform="translate(176.825 8.43262) rotate(22.5)"/>
</clipPath>
<clipPath id="clip2_10768_2025">
<rect width="7.83002" height="261.001" fill="white" transform="translate(192.36 15.5248) rotate(30)"/>
</clipPath>
<clipPath id="clip3_10768_2025">
<rect width="7.83002" height="261.001" fill="white" transform="translate(206.839 24.5857) rotate(37.5)"/>
</clipPath>
<clipPath id="clip4_10768_2025">
<rect width="7.83002" height="261.001" fill="white" transform="translate(220.01 35.4543) rotate(45)"/>
</clipPath>
<clipPath id="clip5_10768_2025">
<rect width="7.83002" height="261.001" fill="white" transform="translate(231.651 47.9489) rotate(52.5)"/>
</clipPath>
<clipPath id="clip6_10768_2025">
<rect width="7.83002" height="261.001" fill="white" transform="translate(241.56 61.8594) rotate(60)"/>
</clipPath>
<clipPath id="clip7_10768_2025">
<rect width="7.83002" height="261.001" fill="white" transform="translate(249.569 76.9429) rotate(67.5)"/>
</clipPath>
<clipPath id="clip8_10768_2025">
<rect width="7.83002" height="261.001" fill="white" transform="translate(255.54 92.9424) rotate(75)"/>
</clipPath>
<clipPath id="clip9_10768_2025">
<rect width="7.83002" height="261.001" fill="white" transform="translate(259.373 109.582) rotate(82.5)"/>
</clipPath>
<clipPath id="clip10_10768_2025">
<rect width="7.83002" height="261.001" fill="white" transform="translate(261.001 126.584) rotate(90)"/>
</clipPath>
<clipPath id="clip11_10768_2025">
<rect width="7.83002" height="261.001" fill="white" transform="translate(260.396 143.651) rotate(97.5)"/>
</clipPath>
<clipPath id="clip12_10768_2025">
<rect width="7.83002" height="261.001" fill="white" transform="translate(257.566 160.492) rotate(105)"/>
</clipPath>
<clipPath id="clip13_10768_2025">
<rect width="7.83002" height="261.001" fill="white" transform="translate(252.566 176.822) rotate(112.5)"/>
</clipPath>
<clipPath id="clip14_10768_2025">
<rect width="7.83002" height="261.001" fill="white" transform="translate(245.473 192.357) rotate(120)"/>
</clipPath>
<clipPath id="clip15_10768_2025">
<rect width="7.83002" height="261.001" fill="white" transform="translate(236.417 206.835) rotate(127.5)"/>
</clipPath>
<clipPath id="clip16_10768_2025">
<rect width="7.83002" height="261.001" fill="white" transform="translate(225.546 220.011) rotate(135)"/>
</clipPath>
<clipPath id="clip17_10768_2025">
<rect width="7.83002" height="261.001" fill="white" transform="translate(213.049 231.647) rotate(142.5)"/>
</clipPath>
<clipPath id="clip18_10768_2025">
<rect width="7.83002" height="261.001" fill="white" transform="translate(199.141 241.558) rotate(150)"/>
</clipPath>
<clipPath id="clip19_10768_2025">
<rect width="7.83002" height="261.001" fill="white" transform="translate(184.058 249.566) rotate(157.5)"/>
</clipPath>
<clipPath id="clip20_10768_2025">
<rect width="7.83002" height="261.001" fill="white" transform="translate(168.058 255.541) rotate(165)"/>
</clipPath>
<clipPath id="clip21_10768_2025">
<rect width="7.83002" height="261.001" fill="white" transform="translate(151.415 259.376) rotate(172.5)"/>
</clipPath>
<clipPath id="clip22_10768_2025">
<rect width="7.83002" height="261.001" fill="white" transform="translate(134.415 261.002) rotate(-180)"/>
</clipPath>
<clipPath id="clip23_10768_2025">
<rect width="7.83002" height="261.001" fill="white" transform="translate(117.348 260.395) rotate(-172.5)"/>
</clipPath>
<clipPath id="clip24_10768_2025">
<rect width="7.83002" height="261.001" fill="white" transform="translate(100.506 257.565) rotate(-165)"/>
</clipPath>
<clipPath id="clip25_10768_2025">
<rect width="7.83002" height="261.001" fill="white" transform="translate(84.1774 252.56) rotate(-157.5)"/>
</clipPath>
<clipPath id="clip26_10768_2025">
<rect width="7.83002" height="261.001" fill="white" transform="translate(68.6411 245.468) rotate(-150)"/>
</clipPath>
<clipPath id="clip27_10768_2025">
<rect width="7.83002" height="261.001" fill="white" transform="translate(54.1631 236.413) rotate(-142.5)"/>
</clipPath>
<clipPath id="clip28_10768_2025">
<rect width="7.83002" height="261.001" fill="white" transform="translate(40.9921 225.547) rotate(-135)"/>
</clipPath>
<clipPath id="clip29_10768_2025">
<rect width="7.83002" height="261.001" fill="white" transform="translate(29.3514 213.052) rotate(-127.5)"/>
</clipPath>
<clipPath id="clip30_10768_2025">
<rect width="7.83002" height="261.001" fill="white" transform="translate(19.4413 199.139) rotate(-120)"/>
</clipPath>
<clipPath id="clip31_10768_2025">
<rect width="7.83002" height="261.001" fill="white" transform="translate(11.4319 184.059) rotate(-112.5)"/>
</clipPath>
<clipPath id="clip32_10768_2025">
<rect width="7.83002" height="261.001" fill="white" transform="translate(5.46057 168.059) rotate(-105)"/>
</clipPath>
<clipPath id="clip33_10768_2025">
<rect width="7.83002" height="261.001" fill="white" transform="translate(1.62787 151.413) rotate(-97.5)"/>
</clipPath>
<clipPath id="clip34_10768_2025">
<rect width="7.83002" height="261.001" fill="white" transform="translate(0.0010376 134.417) rotate(-90)"/>
</clipPath>
<clipPath id="clip35_10768_2025">
<rect width="7.83002" height="261.001" fill="white" transform="translate(0.606262 117.345) rotate(-82.5)"/>
</clipPath>
<clipPath id="clip36_10768_2025">
<rect width="7.83002" height="261.001" fill="white" transform="translate(3.43408 100.505) rotate(-75)"/>
</clipPath>
<clipPath id="clip37_10768_2025">
<rect width="7.83002" height="261.001" fill="white" transform="translate(8.43524 84.1779) rotate(-67.5)"/>
</clipPath>
<clipPath id="clip38_10768_2025">
<rect width="7.83002" height="261.001" fill="white" transform="translate(15.5258 68.6416) rotate(-60)"/>
</clipPath>
<clipPath id="clip39_10768_2025">
<rect width="7.83002" height="261.001" fill="white" transform="translate(24.5841 54.161) rotate(-52.5)"/>
</clipPath>
<clipPath id="clip40_10768_2025">
<rect width="7.83002" height="261.001" fill="white" transform="translate(35.4559 40.9916) rotate(-45)"/>
</clipPath>
<clipPath id="clip41_10768_2025">
<rect width="7.83002" height="261.001" fill="white" transform="translate(47.9504 29.3545) rotate(-37.5)"/>
</clipPath>
<clipPath id="clip42_10768_2025">
<rect width="7.83002" height="261.001" fill="white" transform="translate(61.8599 19.4435) rotate(-30)"/>
</clipPath>
<clipPath id="clip43_10768_2025">
<rect width="7.83002" height="261.001" fill="white" transform="translate(76.9431 11.433) rotate(-22.5)"/>
</clipPath>
<clipPath id="clip44_10768_2025">
<rect width="7.83002" height="261.001" fill="white" transform="translate(92.943 5.46106) rotate(-15)"/>
</clipPath>
<clipPath id="clip45_10768_2025">
<rect width="7.83002" height="261.001" fill="white" transform="translate(109.585 1.62524) rotate(-7.5)"/>
</clipPath>
<clipPath id="clip46_10768_2025">
<rect width="7.83002" height="261.001" fill="white" transform="translate(143.653 0.605713) rotate(7.50004)"/>
</clipPath>
</defs>
</svg>
