<svg width="151" height="30" viewBox="0 0 151 30" fill="none" xmlns="http://www.w3.org/2000/svg">
<path d="M14.5562 2.69524C14.8688 1.80257 16.1312 1.80257 16.4438 2.69524L18.8155 9.46808C18.9532 9.86125 19.3202 10.1279 19.7366 10.1373L26.9109 10.3C27.8564 10.3214 28.2466 11.5221 27.4942 12.0952L21.7857 16.4438C21.4543 16.6962 21.3142 17.1276 21.4339 17.5266L23.4961 24.4C23.7679 25.3059 22.7466 26.048 21.969 25.5095L16.0693 21.4242C15.7268 21.1871 15.2732 21.1871 14.9307 21.4242L9.031 25.5095C8.25341 26.048 7.23208 25.3059 7.50389 24.4L9.56613 17.5266C9.68585 17.1276 9.54567 16.6962 9.21429 16.4438L3.50582 12.0952C2.75344 11.5221 3.14355 10.3214 4.08913 10.3L11.2634 10.1373C11.6798 10.1279 12.0468 9.86125 12.1845 9.46808L14.5562 2.69524Z" fill="#FACC15"/>
<path d="M44.5562 2.69524C44.8688 1.80257 46.1312 1.80257 46.4438 2.69524L48.8155 9.46808C48.9532 9.86125 49.3202 10.1279 49.7366 10.1373L56.9109 10.3C57.8564 10.3214 58.2466 11.5221 57.4942 12.0952L51.7857 16.4438C51.4543 16.6962 51.3142 17.1276 51.4339 17.5266L53.4961 24.4C53.7679 25.3059 52.7466 26.048 51.969 25.5095L46.0693 21.4242C45.7268 21.1871 45.2732 21.1871 44.9307 21.4242L39.031 25.5095C38.2534 26.048 37.2321 25.3059 37.5039 24.4L39.5661 17.5266C39.6858 17.1276 39.5457 16.6962 39.2143 16.4438L33.5058 12.0952C32.7534 11.5221 33.1436 10.3214 34.0891 10.3L41.2634 10.1373C41.6798 10.1279 42.0468 9.86125 42.1845 9.46808L44.5562 2.69524Z" fill="#FACC15"/>
<path d="M74.5562 2.69524C74.8688 1.80257 76.1312 1.80257 76.4438 2.69524L78.8155 9.46808C78.9532 9.86125 79.3202 10.1279 79.7366 10.1373L86.9109 10.3C87.8564 10.3214 88.2466 11.5221 87.4942 12.0952L81.7857 16.4438C81.4543 16.6962 81.3142 17.1276 81.4339 17.5266L83.4961 24.4C83.7679 25.3059 82.7466 26.048 81.969 25.5095L76.0693 21.4242C75.7268 21.1871 75.2732 21.1871 74.9307 21.4242L69.031 25.5095C68.2534 26.048 67.2321 25.3059 67.5039 24.4L69.5661 17.5266C69.6858 17.1276 69.5457 16.6962 69.2143 16.4438L63.5058 12.0952C62.7534 11.5221 63.1436 10.3214 64.0891 10.3L71.2634 10.1373C71.6798 10.1279 72.0468 9.86125 72.1845 9.46808L74.5562 2.69524Z" fill="#FACC15"/>
<path d="M104.556 2.69524C104.869 1.80257 106.131 1.80257 106.444 2.69524L108.815 9.46808C108.953 9.86125 109.32 10.1279 109.737 10.1373L116.911 10.3C117.856 10.3214 118.247 11.5221 117.494 12.0952L111.786 16.4438C111.454 16.6962 111.314 17.1276 111.434 17.5266L113.496 24.4C113.768 25.3059 112.747 26.048 111.969 25.5095L106.069 21.4242C105.727 21.1871 105.273 21.1871 104.931 21.4242L99.031 25.5095C98.2534 26.048 97.2321 25.3059 97.5039 24.4L99.5661 17.5266C99.6858 17.1276 99.5457 16.6962 99.2143 16.4438L93.5058 12.0952C92.7534 11.5221 93.1436 10.3214 94.0891 10.3L101.263 10.1373C101.68 10.1279 102.047 9.86125 102.185 9.46808L104.556 2.69524Z" fill="#FACC15"/>
<path d="M134.556 2.69524C134.869 1.80257 136.131 1.80257 136.444 2.69524L138.815 9.46808C138.953 9.86125 139.32 10.1279 139.737 10.1373L146.911 10.3C147.856 10.3214 148.247 11.5221 147.494 12.0952L141.786 16.4438C141.454 16.6962 141.314 17.1276 141.434 17.5266L143.496 24.4C143.768 25.3059 142.747 26.048 141.969 25.5095L136.069 21.4242C135.727 21.1871 135.273 21.1871 134.931 21.4242L129.031 25.5095C128.253 26.048 127.232 25.3059 127.504 24.4L129.566 17.5266C129.686 17.1276 129.546 16.6962 129.214 16.4438L123.506 12.0952C122.753 11.5221 123.144 10.3214 124.089 10.3L131.263 10.1373C131.68 10.1279 132.047 9.86125 132.185 9.46808L134.556 2.69524Z" fill="#FACC15"/>
</svg>
