<svg width="30" height="34" viewBox="0 0 30 34" fill="none" xmlns="http://www.w3.org/2000/svg">
<path d="M12.6866 1.51748C14.1181 0.690972 15.8819 0.690972 17.3134 1.51748L27.2516 7.25526C28.6831 8.08177 29.565 9.60921 29.565 11.2622V22.7378C29.565 24.3908 28.6831 25.9182 27.2516 26.7447L17.3134 32.4825C15.8819 33.309 14.1181 33.309 12.6866 32.4825L2.74845 26.7447C1.3169 25.9182 0.435033 24.3908 0.435033 22.7378V11.2622C0.435033 9.60921 1.3169 8.08177 2.74845 7.25526L12.6866 1.51748Z" fill="#F56DBB"/>
<path d="M17.2767 14.5936L15.9051 11.0908C15.5882 10.2817 14.446 10.2739 14.1182 11.0787L12.6883 14.5894C12.6873 14.592 12.6849 14.5938 12.6821 14.594L8.82717 14.9026C7.96843 14.9714 7.62596 16.0474 8.28702 16.5999L11.1586 18.9996C11.2032 19.0368 11.223 19.0958 11.2101 19.1524L10.3966 22.6986C10.2025 23.545 11.1403 24.1951 11.8648 23.7164L14.8992 21.7111C14.9764 21.6601 15.0767 21.6608 15.1531 21.713L18.1488 23.7575C18.8516 24.237 19.7852 23.6354 19.6389 22.7973L19.6269 22.7284" stroke="#FEFEFE" stroke-width="1.83605" stroke-linecap="round"/>
<path d="M22.1238 17.639H16.5423" stroke="#FEFEFE" stroke-width="1.72588" stroke-linecap="round"/>
<path d="M19.267 14.8702L19.2524 20.4518" stroke="#FEFEFE" stroke-width="1.7626" stroke-linecap="round"/>
</svg>
