<svg width="30" height="30" viewBox="0 0 30 30" fill="none" xmlns="http://www.w3.org/2000/svg">
<rect width="30" height="30" rx="15" fill="#14A800"/>
<path d="M21.8532 17.87C20.8525 17.87 19.9145 17.446 19.0618 16.7558L19.2689 15.7788L19.2761 15.7406C19.4641 14.7027 20.0471 12.962 21.8541 12.962C23.2089 12.962 24.3086 14.0626 24.3086 15.4165C24.3077 16.7686 23.208 17.87 21.8532 17.87ZM21.8532 10.4785C19.5476 10.4785 17.7579 11.9758 17.0314 14.443C15.9236 12.7777 15.0809 10.7781 14.5915 9.09277H12.107V15.5509C12.1052 16.8276 11.0709 17.8628 9.79422 17.8646C8.5184 17.8628 7.48503 16.8267 7.48322 15.5509V9.09277H4.99878V15.5509C4.99878 18.1969 7.15087 20.3663 9.79422 20.3663C12.4394 20.3663 14.5915 18.1969 14.5915 15.5509V14.4703C15.0718 15.4755 15.6648 16.4943 16.384 17.3951L14.8648 24.5442H17.4046L18.5061 19.3592C19.4714 19.9758 20.581 20.3663 21.8532 20.3663C24.5773 20.3663 26.7921 18.1397 26.7921 15.4174C26.7921 12.6932 24.5773 10.4785 21.8532 10.4785Z" fill="white"/>
</svg>
