<svg width="31" height="30" viewBox="0 0 31 30" fill="none" xmlns="http://www.w3.org/2000/svg">
<g clip-path="url(#clip0_11652_3356)">
<path d="M30.5 15C30.5 6.71573 23.7843 0 15.5 0C7.21573 0 0.5 6.71573 0.5 15C0.5 23.2843 7.21573 30 15.5 30C23.7843 30 30.5 23.2843 30.5 15Z" fill="white"/>
<path d="M0.5 15C0.5 6.716 7.216 0 15.5 0C23.784 0 30.5 6.716 30.5 15C30.5 23.284 23.784 30 15.5 30C7.216 30 0.5 23.284 0.5 15Z" fill="url(#paint0_radial_11652_3356)"/>
<g filter="url(#filter0_di_11652_3356)">
<path d="M12.7487 17.3613L13.7187 17.1373C13.7387 17.1327 13.7727 17.1247 13.814 17.1113C14.0815 17.0394 14.3107 16.8664 14.4533 16.629C14.5959 16.3915 14.6408 16.108 14.5787 15.838L14.5747 15.8207C14.5427 15.6915 14.4869 15.5694 14.41 15.4607C14.3012 15.3226 14.1664 15.2071 14.0134 15.1207C13.8335 15.0183 13.6452 14.9313 13.4507 14.8607L12.3867 14.4727C11.79 14.2513 11.1934 14.0353 10.59 13.8247C10.1994 13.6853 9.86869 13.564 9.58069 13.4747C9.52669 13.458 9.46669 13.4413 9.41802 13.4247C9.07002 13.318 8.82536 13.274 8.61869 13.2727C8.48074 13.2676 8.34334 13.2926 8.21602 13.346C8.08269 13.4033 7.96402 13.488 7.86602 13.594C7.8173 13.6494 7.77146 13.7072 7.72869 13.7673C7.64582 13.8949 7.5774 14.0313 7.52469 14.174C7.32756 14.7569 7.22954 15.3687 7.23469 15.984C7.23869 16.5407 7.25402 17.254 7.56069 17.738C7.63402 17.8627 7.73336 17.97 7.85136 18.0533C8.06936 18.204 8.28936 18.2233 8.51869 18.24C8.86136 18.2647 9.19336 18.18 9.52402 18.104L12.746 17.3607L12.7487 17.3613ZM23.5687 12.214C23.3036 11.6586 22.9474 11.1516 22.5147 10.714C22.4587 10.6586 22.3988 10.6073 22.3354 10.5607C22.2769 10.5169 22.2161 10.4761 22.1534 10.4387C22.0884 10.4031 22.0217 10.3711 21.9534 10.3427C21.8189 10.2901 21.6749 10.2665 21.5307 10.2733C21.3927 10.2807 21.2574 10.3187 21.136 10.384C20.9514 10.476 20.7507 10.624 20.4847 10.8707C20.448 10.9073 20.402 10.9487 20.3607 10.9873C20.1407 11.194 19.8967 11.4473 19.606 11.744C19.1574 12.1973 18.7154 12.6533 18.276 13.1147L17.4894 13.9293C17.3453 14.0782 17.2142 14.239 17.0974 14.41C16.998 14.5547 16.928 14.7167 16.8907 14.8887C16.8681 15.026 16.8726 15.1664 16.904 15.302C16.966 15.5722 17.1306 15.8077 17.3629 15.9588C17.5953 16.1099 17.8773 16.1649 18.1494 16.112C18.1927 16.1053 18.226 16.0987 18.2467 16.0933L22.44 15.1247C22.7707 15.0487 23.106 14.9787 23.4027 14.8067C23.602 14.6913 23.7914 14.5767 23.9214 14.3467C23.9907 14.2193 24.032 14.08 24.044 13.9353C24.108 13.3647 23.8094 12.7153 23.5687 12.214ZM16.064 13.978C16.3674 13.5967 16.3667 13.0287 16.3934 12.564C16.484 11.0107 16.58 9.45801 16.6547 7.90468C16.6834 7.31668 16.7467 6.73601 16.7114 6.14335C16.682 5.65401 16.678 5.09268 16.3687 4.69135C15.8227 3.98335 14.6594 4.04135 13.8654 4.15135C13.6227 4.18468 13.3787 4.23001 13.1374 4.28801C12.8967 4.34446 12.6583 4.41007 12.4227 4.48468C11.6607 4.73401 10.59 5.19135 10.4094 6.06801C10.3074 6.56401 10.5494 7.07135 10.738 7.52335C10.966 8.07201 11.278 8.56601 11.5614 9.08201C12.312 10.4447 13.0767 11.7987 13.8387 13.1553C14.066 13.5593 14.3147 14.072 14.7547 14.282C14.784 14.2947 14.8134 14.306 14.8434 14.3153C15.04 14.3897 15.2543 14.4041 15.4592 14.3569C15.6641 14.3097 15.8504 14.2029 15.9947 14.05C16.019 14.0272 16.0421 14.0031 16.064 13.978ZM15.6994 18.1333C15.5806 17.9667 15.4122 17.8418 15.2183 17.7765C15.0243 17.7113 14.8147 17.709 14.6194 17.77C14.5727 17.7853 14.528 17.804 14.4847 17.826C14.418 17.8593 14.3547 17.8993 14.2947 17.9447C14.12 18.074 13.9727 18.242 13.8387 18.4107C13.8054 18.4533 13.774 18.5107 13.7334 18.5473L13.0594 19.474C12.6774 19.994 12.3007 20.514 11.9267 21.0433C11.6834 21.3847 11.4727 21.6727 11.306 21.928C11.274 21.976 11.2414 22.0293 11.2114 22.072C11.0114 22.3813 10.8987 22.6067 10.8407 22.8073C10.7974 22.9407 10.784 23.082 10.8007 23.2207C10.8194 23.366 10.868 23.5053 10.9447 23.6307C10.9847 23.6933 11.0287 23.7533 11.0754 23.812C11.1761 23.9282 11.2898 24.0327 11.414 24.1233C11.88 24.4473 12.39 24.6793 12.926 24.8593C13.3725 25.0074 13.8365 25.0959 14.306 25.1227C14.3854 25.1267 14.4654 25.1253 14.5447 25.1173C14.6187 25.1107 14.692 25.1007 14.7647 25.0867C14.838 25.07 14.9094 25.0487 14.9794 25.024C15.1166 24.9727 15.2415 24.8933 15.346 24.7907C15.4447 24.692 15.5207 24.5727 15.5687 24.442C15.6467 24.2473 15.698 24.0013 15.7314 23.6353C15.734 23.5827 15.7414 23.5207 15.7467 23.4633C15.7734 23.1593 15.7854 22.8033 15.804 22.3833C15.8374 21.7387 15.8627 21.0967 15.8827 20.4527L15.9254 19.3073C15.9347 19.044 15.9267 18.7513 15.8534 18.4893C15.8212 18.3635 15.7692 18.2429 15.6994 18.1333ZM23.316 19.9233C23.1754 19.7693 22.976 19.6153 22.6607 19.4253C22.6154 19.4 22.562 19.3667 22.5127 19.3367C22.2507 19.1793 21.9354 19.014 21.566 18.814C21 18.5033 20.4327 18.2007 19.8614 17.9007L18.85 17.3653C18.798 17.35 18.7447 17.312 18.6954 17.288C18.5007 17.1953 18.2954 17.1087 18.0814 17.0693C18.0077 17.0551 17.933 17.0473 17.858 17.046C17.8094 17.046 17.7614 17.0487 17.7134 17.0547C17.5113 17.0859 17.3243 17.1801 17.179 17.3239C17.0337 17.4677 16.9374 17.6537 16.904 17.8553C16.8887 17.984 16.8934 18.1133 16.918 18.2407C16.968 18.5093 17.088 18.7747 17.212 19.0073L17.752 20.018C18.0524 20.588 18.3582 21.1552 18.6694 21.7193C18.8707 22.088 19.038 22.4033 19.1947 22.6647C19.2247 22.7133 19.258 22.7667 19.284 22.812C19.4747 23.126 19.628 23.324 19.784 23.4653C19.884 23.5627 20.0047 23.6367 20.1374 23.682C20.276 23.7287 20.4227 23.7447 20.5687 23.73C20.6427 23.7213 20.716 23.7087 20.7887 23.692C20.8605 23.6729 20.9313 23.6499 21.0007 23.6233C21.0752 23.5953 21.1476 23.5619 21.2174 23.5233C21.6276 23.2936 22.0058 23.0107 22.342 22.682C22.7454 22.2853 23.102 21.8527 23.3787 21.3573C23.4174 21.2873 23.4507 21.2147 23.4787 21.14C23.5047 21.0707 23.5274 21 23.546 20.9287C23.5627 20.8553 23.5747 20.782 23.5834 20.7087C23.5973 20.5633 23.5805 20.4165 23.534 20.278C23.4882 20.1453 23.4138 20.0242 23.316 19.9233Z" fill="white"/>
</g>
</g>
<defs>
<filter id="filter0_di_11652_3356" x="5.1165" y="2.49608" width="21.0543" height="25.2758" filterUnits="userSpaceOnUse" color-interpolation-filters="sRGB">
<feFlood flood-opacity="0" result="BackgroundImageFix"/>
<feColorMatrix in="SourceAlpha" type="matrix" values="0 0 0 0 0 0 0 0 0 0 0 0 0 0 0 0 0 0 127 0" result="hardAlpha"/>
<feOffset dy="0.529"/>
<feGaussianBlur stdDeviation="1.059"/>
<feColorMatrix type="matrix" values="0 0 0 0 0.804167 0 0 0 0 0 0 0 0 0 0 0 0 0 0.55 0"/>
<feBlend mode="normal" in2="BackgroundImageFix" result="effect1_dropShadow_11652_3356"/>
<feBlend mode="normal" in="SourceGraphic" in2="effect1_dropShadow_11652_3356" result="shape"/>
<feColorMatrix in="SourceAlpha" type="matrix" values="0 0 0 0 0 0 0 0 0 0 0 0 0 0 0 0 0 0 127 0" result="hardAlpha"/>
<feOffset dy="0.688"/>
<feGaussianBlur stdDeviation="0.662"/>
<feComposite in2="hardAlpha" operator="arithmetic" k2="-1" k3="1"/>
<feColorMatrix type="matrix" values="0 0 0 0 1 0 0 0 0 0 0 0 0 0 0.18 0 0 0 0.25 0"/>
<feBlend mode="normal" in2="shape" result="effect2_innerShadow_11652_3356"/>
</filter>
<radialGradient id="paint0_radial_11652_3356" cx="0" cy="0" r="1" gradientUnits="userSpaceOnUse" gradientTransform="translate(15.5 -3.49333) rotate(90) scale(35.8235)">
<stop stop-color="#FF78A1"/>
<stop offset="0.513" stop-color="#FE375C"/>
<stop offset="1" stop-color="#FF0000"/>
</radialGradient>
<clipPath id="clip0_11652_3356">
<rect width="30" height="30" fill="white" transform="translate(0.5)"/>
</clipPath>
</defs>
</svg>
