<svg width="195" height="34" viewBox="0 0 195 34" fill="none" xmlns="http://www.w3.org/2000/svg">
<rect x="0.5" width="34" height="34" rx="8" fill="#FB433C"/>
<path d="M16.1238 7.1736C16.6461 5.96928 18.3539 5.96928 18.8762 7.1736L20.6779 11.3286C20.8953 11.8298 21.368 12.1732 21.9118 12.225L26.4202 12.6546C27.727 12.7792 28.2547 14.4035 27.2707 15.2723L23.8759 18.2698C23.4663 18.6314 23.2858 19.1871 23.4046 19.7203L24.3892 24.1408C24.6746 25.4221 23.2928 26.426 22.1625 25.7586L18.2626 23.4562C17.7921 23.1785 17.2079 23.1785 16.7374 23.4562L12.8375 25.7586C11.7072 26.426 10.3254 25.4221 10.6108 24.1408L11.5954 19.7203C11.7142 19.1871 11.5337 18.6314 11.1241 18.2698L7.72927 15.2723C6.74528 14.4035 7.27304 12.7792 8.5798 12.6546L13.0882 12.225C13.632 12.1732 14.1047 11.8298 14.3221 11.3286L16.1238 7.1736Z" fill="white"/>
<rect x="40.5" width="34" height="34" rx="8" fill="#FB433C"/>
<path d="M56.1238 7.1736C56.6461 5.96928 58.3539 5.96928 58.8762 7.1736L60.6779 11.3286C60.8953 11.8298 61.368 12.1732 61.9118 12.225L66.4202 12.6546C67.727 12.7792 68.2547 14.4035 67.2707 15.2723L63.8759 18.2698C63.4663 18.6314 63.2858 19.1871 63.4046 19.7203L64.3892 24.1408C64.6746 25.4221 63.2928 26.426 62.1625 25.7586L58.2626 23.4562C57.7921 23.1785 57.2079 23.1785 56.7374 23.4562L52.8375 25.7586C51.7072 26.426 50.3254 25.4221 50.6108 24.1408L51.5954 19.7203C51.7142 19.1871 51.5337 18.6314 51.1241 18.2698L47.7293 15.2723C46.7453 14.4035 47.273 12.7792 48.5798 12.6546L53.0882 12.225C53.632 12.1732 54.1047 11.8298 54.3221 11.3286L56.1238 7.1736Z" fill="white"/>
<rect x="80.5" width="34" height="34" rx="8" fill="#FB433C"/>
<path d="M96.1238 7.1736C96.6461 5.96928 98.3539 5.96928 98.8762 7.1736L100.678 11.3286C100.895 11.8298 101.368 12.1732 101.912 12.225L106.42 12.6546C107.727 12.7792 108.255 14.4035 107.271 15.2723L103.876 18.2698C103.466 18.6314 103.286 19.1871 103.405 19.7203L104.389 24.1408C104.675 25.4221 103.293 26.426 102.162 25.7586L98.2626 23.4562C97.7921 23.1785 97.2079 23.1785 96.7374 23.4562L92.8375 25.7586C91.7072 26.426 90.3254 25.4221 90.6108 24.1408L91.5954 19.7203C91.7142 19.1871 91.5337 18.6314 91.1241 18.2698L87.7293 15.2723C86.7453 14.4035 87.273 12.7792 88.5798 12.6546L93.0882 12.225C93.632 12.1732 94.1047 11.8298 94.3221 11.3286L96.1238 7.1736Z" fill="white"/>
<rect x="120.5" width="34" height="34" rx="8" fill="#FB433C"/>
<path d="M136.124 7.1736C136.646 5.96928 138.354 5.96928 138.876 7.1736L140.678 11.3286C140.895 11.8298 141.368 12.1732 141.912 12.225L146.42 12.6546C147.727 12.7792 148.255 14.4035 147.271 15.2723L143.876 18.2698C143.466 18.6314 143.286 19.1871 143.405 19.7203L144.389 24.1408C144.675 25.4221 143.293 26.426 142.162 25.7586L138.263 23.4562C137.792 23.1785 137.208 23.1785 136.737 23.4562L132.838 25.7586C131.707 26.426 130.325 25.4221 130.611 24.1408L131.595 19.7203C131.714 19.1871 131.534 18.6314 131.124 18.2698L127.729 15.2723C126.745 14.4035 127.273 12.7792 128.58 12.6546L133.088 12.225C133.632 12.1732 134.105 11.8298 134.322 11.3286L136.124 7.1736Z" fill="white"/>
<rect x="160.5" width="34" height="34" rx="8" fill="#FB433C"/>
<path d="M176.124 7.1736C176.646 5.96928 178.354 5.96928 178.876 7.1736L180.678 11.3286C180.895 11.8298 181.368 12.1732 181.912 12.225L186.42 12.6546C187.727 12.7792 188.255 14.4035 187.271 15.2723L183.876 18.2698C183.466 18.6314 183.286 19.1871 183.405 19.7203L184.389 24.1408C184.675 25.4221 183.293 26.426 182.162 25.7586L178.263 23.4562C177.792 23.1785 177.208 23.1785 176.737 23.4562L172.838 25.7586C171.707 26.426 170.325 25.4221 170.611 24.1408L171.595 19.7203C171.714 19.1871 171.534 18.6314 171.124 18.2698L167.729 15.2723C166.745 14.4035 167.273 12.7792 168.58 12.6546L173.088 12.225C173.632 12.1732 174.105 11.8298 174.322 11.3286L176.124 7.1736Z" fill="white"/>
</svg>
