<svg width="42" height="32" viewBox="0 0 42 32" fill="none" xmlns="http://www.w3.org/2000/svg">
<path opacity="0.75" d="M16.6412 6.4C13.2379 6.4 10.8981 7.14667 9.62179 8.64C8.34552 10.0267 7.76057 12.32 7.86692 15.52C10.9512 15.4133 13.3442 16.16 15.0459 17.76C16.854 19.36 17.758 21.3867 17.758 23.84C17.758 26.1867 17.0135 28.16 15.5245 29.76C14.0355 31.2533 12.068 32 9.62179 32C6.85655 32 4.56991 30.9333 2.76187 28.8C0.953825 26.56 0.0498047 23.0933 0.0498047 18.4C0.0498047 12.4267 1.43242 7.89333 4.19766 4.8C6.9629 1.6 10.579 0 15.0459 0H17.758V6.4H16.6412ZM39.9331 6.4C36.5297 6.4 34.1899 7.14667 32.9136 8.64C31.6374 10.0267 31.0524 12.32 31.1588 15.52C34.2431 15.4133 36.6361 16.16 38.3377 17.76C40.1458 19.36 41.0498 21.3867 41.0498 23.84C41.0498 26.1867 40.3053 28.16 38.8163 29.76C37.3274 31.2533 35.3598 32 32.9136 32C30.1484 32 27.8617 30.9333 26.0537 28.8C24.2457 26.56 23.3416 23.0933 23.3416 18.4C23.3416 12.4267 24.7243 7.89333 27.4895 4.8C30.2547 1.6 33.8708 0 38.3377 0H41.0498V6.4H39.9331Z" fill="#39395E"/>
</svg>
