<svg width="578" height="477" viewBox="0 0 578 477" fill="none" xmlns="http://www.w3.org/2000/svg">
<path d="M328.268 477C430.691 469.796 577.919 453.427 578 252.634L578 0H373.447C360.192 0 349.447 10.7452 349.447 24L349.447 270.3H425.338C430.145 342.475 370.773 361.111 306.208 375.417L328.268 477ZM22.0613 477C124.484 469.796 271.712 453.426 271.792 252.634L271.792 0H67.2392C53.9844 0 43.2393 10.7452 43.2393 24V270.3H119.13C123.938 342.475 64.5646 361.111 0 375.417L22.0613 477Z" fill="url(#paint0_linear_10804_1144)"/>
<defs>
<linearGradient id="paint0_linear_10804_1144" x1="41.7232" y1="-101.286" x2="849.855" y2="892.879" gradientUnits="userSpaceOnUse">
<stop stop-color="#1D1D2F"/>
<stop offset="0.883082" stop-color="#39395E"/>
</linearGradient>
</defs>
</svg>
