<svg width="33" height="32" viewBox="0 0 33 32" fill="none" xmlns="http://www.w3.org/2000/svg">
<path d="M28.9486 11.0521C29.3079 11.6439 28.8307 12.3332 28.1384 12.3332H4.3335C3.78121 12.3332 3.3335 11.8855 3.3335 11.3332V8.55984C3.3335 5.3065 5.9735 2.6665 9.22683 2.6665H12.3202C14.4935 2.6665 15.1735 3.37317 16.0402 4.53317L17.9068 7.01317C18.3202 7.55984 18.3735 7.6265 19.1468 7.6265H22.8668C25.4424 7.6265 27.701 8.99708 28.9486 11.0521Z" fill="white"/>
<path d="M29.9769 15.3296C29.975 14.7787 29.5278 14.333 28.9769 14.333L4.33348 14.3335C3.7812 14.3335 3.3335 14.7812 3.3335 15.3335V22.2001C3.3335 26.1335 6.5335 29.3335 10.4668 29.3335H22.8668C26.8002 29.3335 30.0002 26.1335 30.0002 22.2001L29.9769 15.3296ZM20.0002 22.3335H17.7468V24.6668C17.7468 25.2135 17.2935 25.6668 16.7468 25.6668C16.1868 25.6668 15.7468 25.2135 15.7468 24.6668V22.3335H13.3335C12.7868 22.3335 12.3335 21.8801 12.3335 21.3335C12.3335 20.7868 12.7868 20.3335 13.3335 20.3335H15.7468V18.0001C15.7468 17.4535 16.1868 17.0001 16.7468 17.0001C17.2935 17.0001 17.7468 17.4535 17.7468 18.0001V20.3335H20.0002C20.5468 20.3335 21.0002 20.7868 21.0002 21.3335C21.0002 21.8801 20.5468 22.3335 20.0002 22.3335Z" fill="white"/>
</svg>
