<svg width="33" height="32" viewBox="0 0 33 32" fill="none" xmlns="http://www.w3.org/2000/svg">
<path d="M22.3468 6.67984L19.7335 4.0665C17.8668 2.19984 14.8002 2.19984 12.9335 4.0665L10.3202 6.67984C9.80018 7.19984 9.80018 8.05317 10.3202 8.57317L15.4002 13.6532C15.9202 14.1732 16.7602 14.1732 17.2802 13.6532L22.3602 8.57317C22.8668 8.05317 22.8668 7.19984 22.3468 6.67984Z" fill="white"/>
<path d="M7.01358 9.98668L4.40024 12.6C2.53358 14.4667 2.53358 17.5333 4.40024 19.4L7.01358 22.0133C7.53358 22.5333 8.37358 22.5333 8.89358 22.0133L13.9736 16.9333C14.4936 16.4133 14.4936 15.5733 13.9736 15.0533L8.90691 9.98668C8.38691 9.46668 7.53358 9.46668 7.01358 9.98668Z" fill="white"/>
<path d="M28.2668 12.6L25.6535 9.98668C25.1335 9.46668 24.2935 9.46668 23.7735 9.98668L18.6935 15.0667C18.1735 15.5867 18.1735 16.4267 18.6935 16.9467L23.7735 22.0267C24.2935 22.5467 25.1335 22.5467 25.6535 22.0267L28.2668 19.4133C30.1335 17.5333 30.1335 14.4667 28.2668 12.6Z" fill="white"/>
<path d="M10.3201 25.3197L12.9335 27.9331C14.8001 29.7997 17.8668 29.7997 19.7335 27.9331L22.3468 25.3197C22.8668 24.7997 22.8668 23.9597 22.3468 23.4397L17.2668 18.3597C16.7468 17.8397 15.9068 17.8397 15.3868 18.3597L10.3068 23.4397C9.80015 23.9464 9.80015 24.7997 10.3201 25.3197Z" fill="white"/>
</svg>
