<svg width="32" height="32" viewBox="0 0 32 32" fill="none" xmlns="http://www.w3.org/2000/svg">
<path d="M23.3734 10.3598C23.2801 10.3465 23.1867 10.3465 23.0934 10.3598C21.0267 10.2932 19.3867 8.59984 19.3867 6.51984C19.3867 4.39984 21.1067 2.6665 23.2401 2.6665C25.3601 2.6665 27.0934 4.3865 27.0934 6.51984C27.0801 8.59984 25.4401 10.2932 23.3734 10.3598Z" fill="white"/>
<path d="M27.7202 19.6C26.2269 20.6 24.1335 20.9734 22.2002 20.72C22.7069 19.6267 22.9735 18.4134 22.9869 17.1334C22.9869 15.8001 22.6935 14.5334 22.1335 13.4267C24.1069 13.16 26.2002 13.5334 27.7069 14.5334C29.8135 15.92 29.8135 18.2 27.7202 19.6Z" fill="white"/>
<path d="M8.58655 10.3598C8.67988 10.3465 8.77322 10.3465 8.86655 10.3598C10.9332 10.2932 12.5732 8.59984 12.5732 6.51984C12.5732 4.3865 10.8532 2.6665 8.71988 2.6665C6.59988 2.6665 4.87988 4.3865 4.87988 6.51984C4.87988 8.59984 6.51988 10.2932 8.58655 10.3598Z" fill="white"/>
<path d="M8.73349 17.1336C8.73349 18.427 9.01349 19.6536 9.52016 20.7603C7.64016 20.9603 5.68016 20.5603 4.24016 19.6136C2.13349 18.2136 2.13349 15.9336 4.24016 14.5336C5.66682 13.5736 7.68016 13.187 9.57349 13.4003C9.02682 14.5203 8.73349 15.787 8.73349 17.1336Z" fill="white"/>
<path d="M16.1601 21.16C16.0535 21.1467 15.9335 21.1467 15.8135 21.16C13.3601 21.08 11.4001 19.0667 11.4001 16.5867C11.4135 14.0533 13.4535 12 16.0001 12C18.5335 12 20.5868 14.0533 20.5868 16.5867C20.5735 19.0667 18.6268 21.08 16.1601 21.16Z" fill="white"/>
<path d="M11.8267 23.92C9.81332 25.2667 9.81332 27.48 11.8267 28.8134C14.12 30.3467 17.88 30.3467 20.1733 28.8134C22.1867 27.4667 22.1867 25.2534 20.1733 23.92C17.8933 22.3867 14.1333 22.3867 11.8267 23.92Z" fill="white"/>
</svg>
