<svg width="32" height="32" viewBox="0 0 32 32" fill="none" xmlns="http://www.w3.org/2000/svg">
<path d="M23.1866 20.8933L17.7999 16H14.1866L8.79989 20.8933C7.29322 22.2533 6.79989 24.3467 7.53322 26.24C8.26656 28.12 10.0532 29.3333 12.0666 29.3333H19.9199C21.9466 29.3333 23.7199 28.12 24.4532 26.24C25.1866 24.3467 24.6932 22.2533 23.1866 20.8933ZM18.4266 24.1867H13.5732C13.0666 24.1867 12.6666 23.7733 12.6666 23.28C12.6666 22.7867 13.0799 22.3733 13.5732 22.3733H18.4266C18.9332 22.3733 19.3332 22.7867 19.3332 23.28C19.3332 23.7733 18.9199 24.1867 18.4266 24.1867Z" fill="white"/>
<path d="M24.4667 5.75984C23.7334 3.87984 21.9467 2.6665 19.9334 2.6665H12.0667C10.0534 2.6665 8.26672 3.87984 7.53338 5.75984C6.81338 7.65317 7.30672 9.74651 8.81338 11.1065L14.2001 15.9998H17.8134L23.2001 11.1065C24.6934 9.74651 25.1867 7.65317 24.4667 5.75984ZM18.4267 9.63984H13.5734C13.0667 9.63984 12.6667 9.22651 12.6667 8.73317C12.6667 8.23984 13.0801 7.8265 13.5734 7.8265H18.4267C18.9334 7.8265 19.3334 8.23984 19.3334 8.73317C19.3334 9.22651 18.9201 9.63984 18.4267 9.63984Z" fill="white"/>
</svg>
