<svg width="32" height="32" viewBox="0 0 32 32" fill="none" xmlns="http://www.w3.org/2000/svg">
<path d="M22.12 9.87984L8.41336 23.5865C7.77336 24.2265 6.68002 24.0798 6.29336 23.2665C5.60002 21.8398 5.20002 20.2265 5.20002 18.5332C5.17336 11.1732 12.64 4.87984 15.1734 2.9465C15.6667 2.57317 16.3334 2.57317 16.8134 2.9465C17.9734 3.8265 20.1467 5.65317 22.1867 8.05317C22.64 8.5865 22.6134 9.3865 22.12 9.87984Z" fill="white"/>
<path d="M26.8 18.5465C26.8 24.4932 21.96 29.3332 16 29.3332C13.6134 29.3332 11.3867 28.5599 9.5867 27.2265C8.93337 26.7465 8.88003 25.7865 9.45337 25.2132L22.88 11.7865C23.5067 11.1599 24.56 11.2932 24.9867 12.0665C26.08 14.0799 26.8134 16.2665 26.8 18.5465Z" fill="white"/>
</svg>
