<svg width="58" height="67" viewBox="0 0 58 67" fill="none" xmlns="http://www.w3.org/2000/svg">
<g opacity="0.1">
<path d="M21.7225 22.7265L35.5737 17.3454L57.3969 34.5847L43.3463 39.8867L21.7225 22.7265Z" fill="#A8AFBD"/>
<path d="M57.3969 34.5848L43.3463 39.8882L55.2692 32.904L57.3969 34.5848Z" fill="#808998"/>
<path d="M55.1365 47.6949L57.3969 34.5849L16.74 49.9308L26.3124 58.6085C26.9809 59.2146 27.9337 59.3928 28.7761 59.0693L53.6371 49.5212C54.4237 49.2191 54.9933 48.5253 55.1365 47.6949Z" fill="#D1D5DC"/>
<path d="M36.7695 38.8696L22.9183 44.2507L1.09515 27.0114L15.1457 21.7094L36.7695 38.8696Z" fill="#BCC2CD"/>
<path d="M1.09515 27.0114L15.1457 21.7081L3.22285 28.6922L1.09515 27.0114Z" fill="#8E96A4"/>
<path d="M3.35551 13.9015L1.09515 27.0116L41.752 11.6656L32.1796 2.98791C31.5111 2.38184 30.5583 2.20367 29.7159 2.5272L4.85487 12.0753C4.06826 12.3774 3.49867 13.0712 3.35551 13.9015Z" fill="#EEEFF2"/>
</g>
</svg>
