<svg width="139" height="33" viewBox="0 0 139 33" fill="none" xmlns="http://www.w3.org/2000/svg">
<path d="M6.16275 25.2475C4.97475 25.2475 3.8775 25.099 2.871 24.802C1.8645 24.4885 0.99 24.043 0.2475 23.4655L1.9305 21.2132C2.673 21.7082 3.3825 22.0795 4.059 22.327C4.752 22.5745 5.43675 22.6982 6.11325 22.6982C6.87225 22.6982 7.4745 22.5745 7.92 22.327C8.382 22.063 8.613 21.7247 8.613 21.3122C8.613 20.9822 8.481 20.7182 8.217 20.5202C7.9695 20.3222 7.56525 20.182 7.00425 20.0995L4.52925 19.7282C3.24225 19.5302 2.26875 19.1177 1.60875 18.4907C0.94875 17.8472 0.61875 17.0057 0.61875 15.9662C0.61875 15.1247 0.83325 14.407 1.26225 13.813C1.70775 13.2025 2.3265 12.7322 3.1185 12.4022C3.927 12.0557 4.884 11.8825 5.9895 11.8825C6.93 11.8825 7.84575 12.0145 8.73675 12.2785C9.64425 12.5425 10.494 12.9467 11.286 13.4912L9.6525 15.694C8.943 15.2485 8.2665 14.9267 7.623 14.7287C6.9795 14.5307 6.32775 14.4317 5.66775 14.4317C5.05725 14.4317 4.56225 14.5472 4.18275 14.7782C3.81975 15.0092 3.63825 15.3145 3.63825 15.694C3.63825 16.0405 3.77025 16.3127 4.03425 16.5107C4.29825 16.7087 4.752 16.849 5.3955 16.9315L7.84575 17.3027C9.13275 17.4842 10.1145 17.8967 10.791 18.5402C11.4675 19.1672 11.8058 19.984 11.8058 20.9905C11.8058 21.8155 11.5583 22.5497 11.0633 23.1932C10.5683 23.8202 9.9 24.3235 9.0585 24.703C8.217 25.066 7.25175 25.2475 6.16275 25.2475ZM19.3655 25.198C17.93 25.198 16.841 24.8762 16.0985 24.2327C15.3725 23.5727 15.0095 22.6157 15.0095 21.3618V14.9267H12.3613V12.1052H15.0095V8.8135L18.4003 8.04625V12.1052H22.088V14.9267H18.4003V20.6687C18.4003 21.2627 18.5323 21.6917 18.7963 21.9557C19.0603 22.2032 19.5223 22.327 20.1823 22.327C20.5123 22.327 20.8093 22.3105 21.0733 22.2775C21.3538 22.228 21.659 22.1455 21.989 22.03V24.8267C21.6425 24.9422 21.2053 25.033 20.6773 25.099C20.1658 25.165 19.7285 25.198 19.3655 25.198ZM27.8505 25.2228C26.9265 25.2228 26.1098 25.0578 25.4003 24.7277C24.6908 24.3812 24.138 23.911 23.742 23.317C23.346 22.723 23.148 22.0382 23.148 21.2627C23.148 20.0252 23.61 19.0682 24.534 18.3917C25.4745 17.6987 26.7615 17.3522 28.395 17.3522C29.517 17.3522 30.573 17.5255 31.563 17.872V16.9315C31.563 16.189 31.332 15.628 30.87 15.2485C30.408 14.869 29.7315 14.6792 28.8405 14.6792C28.296 14.6792 27.7103 14.77 27.0833 14.9515C26.4563 15.1165 25.7303 15.3805 24.9053 15.7435L23.6678 13.2437C24.6908 12.7817 25.6643 12.4352 26.5883 12.2042C27.5288 11.9732 28.4693 11.8577 29.4098 11.8577C31.1423 11.8577 32.487 12.2785 33.444 13.12C34.4175 13.945 34.9043 15.1165 34.9043 16.6345V25H31.563V24.0842C31.035 24.4802 30.4658 24.769 29.8553 24.9505C29.2448 25.132 28.5765 25.2228 27.8505 25.2228ZM26.3655 21.1885C26.3655 21.6835 26.58 22.0795 27.009 22.3765C27.438 22.657 28.0073 22.7972 28.7168 22.7972C29.2778 22.7972 29.7975 22.7312 30.276 22.5992C30.7545 22.4507 31.1835 22.2362 31.563 21.9557V20.0747C31.1505 19.9097 30.7215 19.786 30.276 19.7035C29.8305 19.621 29.352 19.5797 28.8405 19.5797C28.065 19.5797 27.4545 19.7282 27.009 20.0252C26.58 20.3057 26.3655 20.6935 26.3655 21.1885ZM37.4705 25V12.1052H40.8613V13.5407C41.2738 12.9797 41.7688 12.5507 42.3463 12.2537C42.9238 11.9567 43.5755 11.8082 44.3015 11.8082C44.9285 11.8247 45.3988 11.9237 45.7123 12.1052V15.0752C45.4648 14.9597 45.1925 14.8772 44.8955 14.8277C44.5985 14.7617 44.2933 14.7287 43.9798 14.7287C43.3198 14.7287 42.7175 14.8937 42.173 15.2237C41.6285 15.5537 41.1913 16.024 40.8613 16.6345V25H37.4705ZM53.6868 25.198C52.2513 25.198 51.1623 24.8762 50.4198 24.2327C49.6938 23.5727 49.3308 22.6157 49.3308 21.3618V14.9267H46.6826V12.1052H49.3308V8.8135L52.7216 8.04625V12.1052H56.4093V14.9267H52.7216V20.6687C52.7216 21.2627 52.8536 21.6917 53.1176 21.9557C53.3816 22.2032 53.8436 22.327 54.5036 22.327C54.8336 22.327 55.1306 22.3105 55.3946 22.2775C55.6751 22.228 55.9803 22.1455 56.3103 22.03V24.8267C55.9638 24.9422 55.5266 25.033 54.9986 25.099C54.4871 25.165 54.0498 25.198 53.6868 25.198ZM64.2295 25.2475C62.9425 25.2475 61.771 24.9505 60.715 24.3565C59.6755 23.7625 58.8505 22.9622 58.24 21.9557C57.6295 20.9492 57.3243 19.819 57.3243 18.565C57.3243 17.311 57.613 16.1807 58.1905 15.1742C58.7845 14.1677 59.5848 13.3675 60.5913 12.7735C61.5978 12.1795 62.7198 11.8825 63.9573 11.8825C65.1948 11.8825 66.292 12.1877 67.249 12.7982C68.206 13.4087 68.9568 14.2337 69.5013 15.2732C70.0623 16.3127 70.3428 17.4925 70.3428 18.8125V19.7035H60.7893C60.9378 20.215 61.177 20.677 61.507 21.0895C61.8535 21.502 62.2743 21.8237 62.7693 22.0547C63.2808 22.2857 63.8253 22.4012 64.4028 22.4012C64.9803 22.4012 65.5083 22.3105 65.9868 22.129C66.4818 21.9475 66.9025 21.6917 67.249 21.3618L69.4765 23.3912C68.6845 24.0347 67.8678 24.505 67.0263 24.802C66.2013 25.099 65.269 25.2475 64.2295 25.2475ZM60.7398 17.278H67.0015C66.886 16.7665 66.6715 16.321 66.358 15.9415C66.061 15.5455 65.698 15.2402 65.269 15.0257C64.8565 14.7947 64.3945 14.6792 63.883 14.6792C63.355 14.6792 62.8765 14.7865 62.4475 15.001C62.0185 15.2155 61.6555 15.5207 61.3585 15.9167C61.078 16.2962 60.8718 16.75 60.7398 17.278ZM72.4202 25V12.1052H75.811V13.5407C76.2235 12.9797 76.7185 12.5507 77.296 12.2537C77.8735 11.9567 78.5252 11.8082 79.2512 11.8082C79.8782 11.8247 80.3485 11.9237 80.662 12.1052V15.0752C80.4145 14.9597 80.1422 14.8772 79.8452 14.8277C79.5482 14.7617 79.243 14.7287 78.9295 14.7287C78.2695 14.7287 77.6672 14.8937 77.1227 15.2237C76.5782 15.5537 76.141 16.024 75.811 16.6345V25H72.4202ZM88.1784 25.2475C86.9079 25.2475 85.7612 24.9588 84.7382 24.3812C83.7152 23.7872 82.9067 22.987 82.3127 21.9805C81.7187 20.9575 81.4217 19.819 81.4217 18.565C81.4217 17.2945 81.7187 16.156 82.3127 15.1495C82.9067 14.143 83.7152 13.3427 84.7382 12.7487C85.7612 12.1547 86.9079 11.8577 88.1784 11.8577C89.2014 11.8577 90.1749 12.0557 91.099 12.4517C92.0394 12.8477 92.8479 13.417 93.5245 14.1595L91.4455 16.3622C90.9669 15.8342 90.4637 15.4465 89.9357 15.199C89.4242 14.935 88.8632 14.803 88.2527 14.803C87.5927 14.803 86.9987 14.968 86.4707 15.298C85.9592 15.628 85.5467 16.0735 85.2332 16.6345C84.9362 17.1955 84.7877 17.839 84.7877 18.565C84.7877 19.258 84.9362 19.8932 85.2332 20.4707C85.5467 21.0317 85.9757 21.4772 86.5202 21.8072C87.0647 22.1207 87.6669 22.2775 88.3269 22.2775C88.9044 22.2775 89.4407 22.162 89.9357 21.931C90.4472 21.6835 90.9339 21.3205 91.3959 20.842L93.4255 22.9705C92.7654 23.68 91.9734 24.241 91.0494 24.6535C90.1254 25.0495 89.1684 25.2475 88.1784 25.2475ZM101.112 25.2475C99.8253 25.2475 98.662 24.9505 97.6225 24.3565C96.583 23.7625 95.758 22.9622 95.1475 21.9557C94.537 20.9492 94.2318 19.819 94.2318 18.565C94.2318 17.311 94.5288 16.1807 95.1228 15.1742C95.7333 14.1512 96.5583 13.3427 97.5978 12.7487C98.6538 12.1547 99.8253 11.8577 101.112 11.8577C102.399 11.8577 103.563 12.1547 104.602 12.7487C105.658 13.3427 106.483 14.1512 107.077 15.1742C107.688 16.1807 107.993 17.311 107.993 18.565C107.993 19.819 107.688 20.9492 107.077 21.9557C106.483 22.9622 105.666 23.7625 104.627 24.3565C103.587 24.9505 102.416 25.2475 101.112 25.2475ZM101.112 22.3022C101.789 22.3022 102.391 22.1372 102.919 21.8072C103.464 21.4772 103.893 21.0317 104.206 20.4707C104.536 19.8932 104.701 19.258 104.701 18.565C104.701 17.8555 104.536 17.2202 104.206 16.6592C103.893 16.0982 103.464 15.6527 102.919 15.3227C102.391 14.9762 101.789 14.803 101.112 14.803C100.452 14.803 99.85 14.9762 99.3055 15.3227C98.761 15.6527 98.332 16.0982 98.0185 16.6592C97.705 17.2202 97.5483 17.8555 97.5483 18.565C97.5483 19.258 97.705 19.8932 98.0185 20.4707C98.332 21.0317 98.761 21.4772 99.3055 21.8072C99.85 22.1372 100.452 22.3022 101.112 22.3022ZM116.042 25.1733C114.821 25.1733 113.715 24.8762 112.725 24.2822C111.735 23.6882 110.943 22.8962 110.349 21.9062C109.772 20.8997 109.483 19.7777 109.483 18.5402C109.483 17.3027 109.772 16.189 110.349 15.199C110.943 14.1925 111.743 13.4005 112.75 12.823C113.756 12.229 114.887 11.932 116.141 11.932C116.784 11.932 117.403 12.0227 117.997 12.2042C118.591 12.3692 119.144 12.6167 119.655 12.9467V7.675L123.046 7.10575V25H119.705V23.9357C118.649 24.7607 117.428 25.1733 116.042 25.1733ZM116.586 22.2775C117.213 22.2775 117.782 22.1785 118.294 21.9805C118.822 21.766 119.276 21.4525 119.655 21.04V16.0157C119.276 15.6362 118.822 15.3392 118.294 15.1247C117.766 14.9102 117.197 14.803 116.586 14.803C115.877 14.803 115.233 14.968 114.656 15.298C114.095 15.6115 113.649 16.057 113.319 16.6345C112.989 17.1955 112.824 17.8307 112.824 18.5402C112.824 19.2497 112.989 19.885 113.319 20.446C113.649 21.007 114.095 21.4525 114.656 21.7825C115.233 22.1125 115.877 22.2775 116.586 22.2775ZM132.002 25.2475C130.715 25.2475 129.543 24.9505 128.487 24.3565C127.448 23.7625 126.623 22.9622 126.012 21.9557C125.402 20.9492 125.097 19.819 125.097 18.565C125.097 17.311 125.385 16.1807 125.963 15.1742C126.557 14.1677 127.357 13.3675 128.364 12.7735C129.37 12.1795 130.492 11.8825 131.73 11.8825C132.967 11.8825 134.064 12.1877 135.021 12.7982C135.978 13.4087 136.729 14.2337 137.274 15.2732C137.835 16.3127 138.115 17.4925 138.115 18.8125V19.7035H128.562C128.71 20.215 128.949 20.677 129.279 21.0895C129.626 21.502 130.047 21.8237 130.542 22.0547C131.053 22.2857 131.598 22.4012 132.175 22.4012C132.753 22.4012 133.281 22.3105 133.759 22.129C134.254 21.9475 134.675 21.6917 135.021 21.3618L137.249 23.3912C136.457 24.0347 135.64 24.505 134.799 24.802C133.974 25.099 133.041 25.2475 132.002 25.2475ZM128.512 17.278H134.774C134.658 16.7665 134.444 16.321 134.13 15.9415C133.833 15.5455 133.47 15.2402 133.041 15.0257C132.629 14.7947 132.167 14.6792 131.655 14.6792C131.127 14.6792 130.649 14.7865 130.22 15.001C129.791 15.2155 129.428 15.5207 129.131 15.9167C128.85 16.2962 128.644 16.75 128.512 17.278Z" fill="#F3F4F6"/>
</svg>
